<?xml version="1.0" encoding="UTF-8"?>
<svg version="1.1" xmlns="http://www.w3.org/2000/svg" width="100" height="100">
<path d="M0 0 C33 0 66 0 100 0 C100 33 100 66 100 100 C67 100 34 100 0 100 C0 67 0 34 0 0 Z " fill="#030303" transform="translate(0,0)"/>
<path d="M0 0 C1.15822266 -0.020625 2.31644531 -0.04125 3.50976562 -0.0625 C5.17362305 -0.07023438 5.17362305 -0.07023438 6.87109375 -0.078125 C8.39947876 -0.09214355 8.39947876 -0.09214355 9.95874023 -0.10644531 C12.5625 0.25 12.5625 0.25 14.41821289 1.64550781 C15.5625 3.25 15.5625 3.25 15.5625 5.25 C14.0625 6.875 14.0625 6.875 12.5625 8.25 C13.5525 8.58 14.5425 8.91 15.5625 9.25 C12.5925 9.25 9.6225 9.25 6.5625 9.25 C6.2325 17.83 5.9025 26.41 5.5625 35.25 C6.5525 35.25 7.5425 35.25 8.5625 35.25 C8.66046875 34.63511719 8.7584375 34.02023438 8.859375 33.38671875 C10.07298951 26.82692308 10.07298951 26.82692308 12.3125 24.1875 C15.15330316 23.00383202 17.51140065 23.18747747 20.5625 23.25 C20.73265625 22.26257813 20.9028125 21.27515625 21.078125 20.2578125 C21.32046875 18.97648437 21.5628125 17.69515625 21.8125 16.375 C22.04453125 15.09882813 22.2765625 13.82265625 22.515625 12.5078125 C23.5625 9.25 23.5625 9.25 25.671875 7.8046875 C26.29578125 7.62164063 26.9196875 7.43859375 27.5625 7.25 C29.05078125 8.26953125 29.05078125 8.26953125 30.5625 10.25 C30.7797101 12.89996326 30.84601554 15.30076558 30.75 17.9375 C30.72969727 18.9903418 30.72969727 18.9903418 30.70898438 20.06445312 C30.67370182 21.79329829 30.61989583 23.52174765 30.5625 25.25 C30.85125 24.445625 31.14 23.64125 31.4375 22.8125 C32.5625 20.25 32.5625 20.25 34.5625 19.25 C36.56210012 19.210008 38.56297242 19.20653201 40.5625 19.25 C40.5625 19.91 40.5625 20.57 40.5625 21.25 C41.5525 21.58 42.5425 21.91 43.5625 22.25 C43.61649736 23.70792884 43.65529177 25.16642712 43.6875 26.625 C43.71070313 27.43710937 43.73390625 28.24921875 43.7578125 29.0859375 C43.5625 31.25 43.5625 31.25 41.5625 33.25 C43.2125 34.24 44.8625 35.23 46.5625 36.25 C46.67207031 35.65832031 46.78164062 35.06664062 46.89453125 34.45703125 C48.61632436 25.87606232 48.61632436 25.87606232 51.5625 22.25 C55.45679581 20.76100454 58.50033224 21.48834355 62.5625 22.25 C63.5625 23.25 63.5625 23.25 63.66015625 26.62890625 C63.65348369 28.02347077 63.64152532 29.41801743 63.625 30.8125 C63.62048828 31.52341797 63.61597656 32.23433594 63.61132812 32.96679688 C63.59950864 34.72790013 63.58157263 36.48896036 63.5625 38.25 C65.5425 37.59 67.5225 36.93 69.5625 36.25 C71.0625 37.5625 71.0625 37.5625 72.5625 39.25 C72.5625 40.24 72.5625 41.23 72.5625 42.25 C71.5725 43.24 71.5725 43.24 70.5625 44.25 C71.2225 44.25 71.8825 44.25 72.5625 44.25 C72.5625 44.91 72.5625 45.57 72.5625 46.25 C67.05032223 47.15644701 62.79789719 47.67615968 57.5625 45.25 C56.9025 44.59 56.2425 43.93 55.5625 43.25 C53.87488142 42.64688385 52.16235524 42.11149763 50.4375 41.625 C49.52742188 41.36460938 48.61734375 41.10421875 47.6796875 40.8359375 C46.98101562 40.64257812 46.28234375 40.44921875 45.5625 40.25 C45.0675 41.24 45.0675 41.24 44.5625 42.25 C45.5525 42.58 46.5425 42.91 47.5625 43.25 C41.57738629 42.90697965 36.81132694 42.42692157 31.5625 39.25 C31.2325 41.56 30.9025 43.87 30.5625 46.25 C22.8125 44.625 22.8125 44.625 20.5625 41.25 C18.13728506 40.66810734 18.13728506 40.66810734 15.4375 40.5625 C14.52742188 40.49675781 13.61734375 40.43101563 12.6796875 40.36328125 C11.63167969 40.30720703 11.63167969 40.30720703 10.5625 40.25 C11.39583333 42.41666667 11.39583333 42.41666667 13.5625 43.25 C11.35231784 45.46018216 6.34172619 44.43530405 3.375 44.4375 C2.09786133 44.45586914 2.09786133 44.45586914 0.79492188 44.47460938 C-4.02463155 44.48579163 -7.9114037 44.12414462 -12.4375 42.25 C-11.7775 41.26 -11.1175 40.27 -10.4375 39.25 C-10.4375 38.26 -10.4375 37.27 -10.4375 36.25 C-7.72870665 34.89560332 -5.42816732 35.18498549 -2.4375 35.25 C-2.44910156 34.0434375 -2.46070313 32.836875 -2.47265625 31.59375 C-2.48204335 29.97916823 -2.49114256 28.36458476 -2.5 26.75 C-2.50837891 25.95851563 -2.51675781 25.16703125 -2.52539062 24.3515625 C-2.54641185 19.22238283 -2.17687287 14.32663894 -1.4375 9.25 C-2.30761719 9.28480469 -2.30761719 9.28480469 -3.1953125 9.3203125 C-8.05161166 9.43250423 -11.86682395 9.12514915 -16.4375 7.25 C-15.7775 6.26 -15.1175 5.27 -14.4375 4.25 C-14.4375 3.26 -14.4375 2.27 -14.4375 1.25 C-10.20986591 -0.86381704 -4.644912 0.0206097 0 0 Z " fill="#F6F6F7" transform="translate(21.4375,8.75)"/>
<path d="M0 0 C3.81239789 2.45961154 3.81239789 2.45961154 4.62109375 4.7890625 C5.86332755 12.03756073 6.34882083 23.30235834 3 30 C0.36 29.34 -2.28 28.68 -5 28 C-4.67 26.02 -4.34 24.04 -4 22 C-5.65 22.33 -7.3 22.66 -9 23 C-9.33 25.97 -9.66 28.94 -10 32 C-12.64 31.34 -15.28 30.68 -18 30 C-18.45989066 9.40711815 -18.45989066 9.40711815 -16 4 C-13.921875 2.7421875 -13.921875 2.7421875 -12 2 C-10.5 3 -10.5 3 -9 5 C-8.72654521 7.71846235 -8.86508715 10.25677199 -9 13 C-7.68 13.33 -6.36 13.66 -5 14 C-5 13.34 -5 12.68 -5 12 C-4.34 12 -3.68 12 -3 12 C-3.05220703 10.95199219 -3.05220703 10.95199219 -3.10546875 9.8828125 C-3.14607422 8.51769531 -3.14607422 8.51769531 -3.1875 7.125 C-3.22230469 6.22007813 -3.25710937 5.31515625 -3.29296875 4.3828125 C-3.19628906 3.59648438 -3.09960938 2.81015625 -3 2 C-2.01 1.34 -1.02 0.68 0 0 Z " fill="#F4F4F5" transform="translate(40,54)"/>
<path d="M0 0 C1.984375 1.14453125 1.984375 1.14453125 4 3 C4.390625 5.69921875 4.390625 5.69921875 4.25 8.6875 C4.21390625 9.68136719 4.1778125 10.67523438 4.140625 11.69921875 C4.07101563 12.83810547 4.07101563 12.83810547 4 14 C4.99 14 5.98 14 7 14 C7 14.66 7 15.32 7 16 C7.99 16.33 8.98 16.66 10 17 C11.22691067 19.45382134 11.20175931 21.19984103 11.25 23.9375 C11.27578125 24.81277344 11.3015625 25.68804687 11.328125 26.58984375 C11 29 11 29 9.69140625 30.796875 C6.87564496 32.79977218 4.35063022 32.28395171 1 32 C-2.4375 31 -2.4375 31 -5 30 C-5.45969919 7.83228365 -5.45969919 7.83228365 -2 1 C-1.34 0.67 -0.68 0.34 0 0 Z " fill="#F7F7F7" transform="translate(71,52)"/>
<path d="M0 0 C0 0.66 0 1.32 0 2 C0.99 2.33 1.98 2.66 3 3 C3.05399736 4.45792884 3.09279177 5.91642712 3.125 7.375 C3.14820312 8.18710937 3.17140625 8.99921875 3.1953125 9.8359375 C3 12 3 12 1 14 C2.65 14.99 4.3 15.98 6 17 C6.33 16.01 6.66 15.02 7 14 C7.99 15.98 8.98 17.96 10 20 C9.195625 20.12375 8.39125 20.2475 7.5625 20.375 C6.716875 20.58125 5.87125 20.7875 5 21 C4.67 21.66 4.34 22.32 4 23 C4.99 23.33 5.98 23.66 7 24 C-6.18879092 23.45947578 -6.18879092 23.45947578 -11 19 C-11.99504504 16.15623739 -12 14.07194129 -12 11 C-11.34 11 -10.68 11 -10 11 C-9.94392578 10.06027344 -9.94392578 10.06027344 -9.88671875 9.1015625 C-9.78810547 7.87566406 -9.78810547 7.87566406 -9.6875 6.625 C-9.62949219 5.81289063 -9.57148437 5.00078125 -9.51171875 4.1640625 C-8.34121871 -0.78599111 -4.18870116 -0.1861645 0 0 Z " fill="#ECECEC" transform="translate(62,28)"/>
<path d="M0 0 C1.96484375 1.1328125 1.96484375 1.1328125 4 3 C5.13127382 8.47692569 4.89072298 13.47715103 2.0625 18.3125 C-2.24638385 20.68678294 -5.34498968 20.25059979 -10 19 C-12.5625 18 -12.5625 18 -14 16 C-14.71912755 11.16223287 -14.54144795 6.28033339 -12 2 C-11.01 1.67 -10.02 1.34 -9 1 C-7.5 2.1875 -7.5 2.1875 -6 4 C-5.8125 6.6875 -5.8125 6.6875 -6 9 C-5.34 9 -4.68 9 -4 9 C-3.896875 7.88625 -3.79375 6.7725 -3.6875 5.625 C-3.460625 4.42875 -3.23375 3.2325 -3 2 C-2.01 1.34 -1.02 0.68 0 0 Z " fill="#F4F4F4" transform="translate(61,64)"/>
<path d="M0 0 C0.8125 1.6875 0.8125 1.6875 1 4 C-1.4375 6.75 -1.4375 6.75 -4 9 C-4.99 8.34 -5.98 7.68 -7 7 C-5.37660195 5.29115995 -3.70680947 3.62553283 -2 2 C-1.34 2 -0.68 2 0 2 C0 1.34 0 0.68 0 0 Z " fill="#C7C6C7" transform="translate(64,75)"/>
<path d="M0 0 C0.66 0 1.32 0 2 0 C1.67 2.64 1.34 5.28 1 8 C0.01 8.33 -0.98 8.66 -2 9 C-2.99 8.34 -3.98 7.68 -5 7 C-5 6.34 -5 5.68 -5 5 C-3.68 4.67 -2.36 4.34 -1 4 C-0.67 2.68 -0.34 1.36 0 0 Z " fill="#7B7B7B" transform="translate(36,60)"/>
<path d="M0 0 C-0.33 1.32 -0.66 2.64 -1 4 C-1.99 3.67 -2.98 3.34 -4 3 C-4 3.66 -4 4.32 -4 5 C-4.99 4.67 -5.98 4.34 -7 4 C-7.99 4.33 -8.98 4.66 -10 5 C-9.67 4.01 -9.34 3.02 -9 2 C-3.21052632 0 -3.21052632 0 0 0 Z " fill="#505050" transform="translate(82,27)"/>
<path d="M0 0 C0.99 0.33 1.98 0.66 3 1 C1.41328692 3.38006962 0.12153042 5.14366088 -2 7 C-2.66 7 -3.32 7 -4 7 C-3.6875 4.625 -3.6875 4.625 -3 2 C-2.01 1.34 -1.02 0.68 0 0 Z " fill="#B2B2B2" transform="translate(36,32)"/>
<path d="M0 0 C2.475 0.99 2.475 0.99 5 2 C4.67 3.65 4.34 5.3 4 7 C3.01 6.67 2.02 6.34 1 6 C1 5.34 1 4.68 1 4 C0.34 3.67 -0.32 3.34 -1 3 C-0.67 2.01 -0.34 1.02 0 0 Z " fill="#171717" transform="translate(67,48)"/>
<path d="M0 0 C0.33 1.32 0.66 2.64 1 4 C-0.32 4.99 -1.64 5.98 -3 7 C-3.66 6.34 -4.32 5.68 -5 5 C-3.625 3.5 -3.625 3.5 -2 2 C-1.34 2 -0.68 2 0 2 C0 1.34 0 0.68 0 0 Z " fill="#A9A9A9" transform="translate(81,77)"/>
<path d="M0 0 C0.99 0.33 1.98 0.66 3 1 C3.6875 3.0625 3.6875 3.0625 4 5 C2.35 4.67 0.7 4.34 -1 4 C-1 1 -1 1 0 0 Z " fill="#C9C8C9" transform="translate(76,47)"/>
</svg>
